<?xml version="1.0" standalone="no"?>
<!DOCTYPE svg PUBLIC "-//W3C//DTD SVG 1.1//EN" "http://www.w3.org/Graphics/SVG/1.1/DTD/svg11.dtd" >
<svg xmlns="http://www.w3.org/2000/svg">
<metadata></metadata>
<defs>
<font id="open_sans_lightitalic" horiz-adv-x="1105" >
<font-face units-per-em="2048" ascent="1638" descent="-410" />
<missing-glyph horiz-adv-x="521" />
<glyph unicode="&#xfb00;" horiz-adv-x="1131" d="M-128 -482q-47 0 -100 18v89q52 -16 98 -16q86 0 131 52t73 182l242 1143h-201l13 66l201 13l35 157q34 165 114 239.5t223 74.5q71 0 162 -31l-24 -78q-85 26 -144 26q-94 0 -150.5 -52.5t-82.5 -174.5l-35 -161h468l34 157q34 165 114 239.5t223 74.5q72 0 163 -31 l-24 -78q-85 26 -145 26q-95 0 -151 -53t-81 -174l-34 -161h243l-17 -79h-243l-247 -1166q-33 -162 -103 -232t-190 -70q-47 0 -100 18v89q52 -16 98 -16q86 0 131.5 52t73.5 182l239 1143h-467l-247 -1166q-33 -158 -102.5 -230t-190.5 -72z" />
<glyph unicode="&#xfb01;" horiz-adv-x="1019" d="M725 0h-97l227 1065h94zM897 1339q0 54 21.5 86t58.5 32q56 0 56 -70q0 -56 -21.5 -88.5t-55.5 -32.5q-29 0 -44 19t-15 54zM-145 -482q-47 0 -100 18v89q52 -16 98 -16q86 0 131 52t73 182l242 1143h-201l13 66l201 13l35 157q34 165 114 239.5t223 74.5q71 0 162 -31 l-24 -78q-85 26 -144 26q-94 0 -150.5 -52.5t-82.5 -174.5l-35 -161h243l-15 -79h-243l-247 -1166q-33 -158 -102.5 -230t-190.5 -72z" />
<glyph unicode="&#xfb02;" horiz-adv-x="1021" d="M723 0h-93l328 1525h92zM-145 -482q-47 0 -100 18v89q52 -16 98 -16q86 0 131 52t73 182l242 1143h-201l13 66l201 13l35 157q34 165 114 239.5t223 74.5q71 0 162 -31l-24 -78q-85 26 -144 26q-94 0 -150.5 -52.5t-82.5 -174.5l-35 -161h243l-15 -79h-243l-247 -1166 q-33 -158 -102.5 -230t-190.5 -72z" />
<glyph unicode="&#xfb03;" horiz-adv-x="1583" d="M-145 -482q-47 0 -100 18v89q52 -16 98 -16q86 0 131 52t73 182l242 1143h-201l13 66l201 13l35 157q34 165 114 239.5t223 74.5q71 0 162 -31l-24 -78q-85 26 -144 26q-94 0 -150.5 -52.5t-82.5 -174.5l-35 -161h468l34 157q34 165 114 239.5t223 74.5q72 0 163 -31 l-24 -78q-85 26 -145 26q-95 0 -151 -53t-81 -174l-34 -161h243l-17 -79h-243l-247 -1166q-33 -162 -103 -232t-190 -70q-47 0 -100 18v89q52 -16 98 -16q86 0 131.5 52t73.5 182l239 1143h-467l-247 -1166q-33 -158 -102.5 -230t-190.5 -72zM1289 0h-97l227 1065h94z M1461 1339q0 54 21.5 86t58.5 32q56 0 56 -70q0 -56 -21.5 -88.5t-55.5 -32.5q-29 0 -44 19t-15 54z" />
<glyph unicode="&#xfb04;" horiz-adv-x="1593" d="M-145 -482q-47 0 -100 18v89q52 -16 98 -16q86 0 131 52t73 182l242 1143h-201l13 66l201 13l35 157q34 165 114 239.5t223 74.5q71 0 162 -31l-24 -78q-85 26 -144 26q-94 0 -150.5 -52.5t-82.5 -174.5l-35 -161h468l34 157q34 165 114 239.5t223 74.5q72 0 163 -31 l-24 -78q-85 26 -145 26q-95 0 -151 -53t-81 -174l-34 -161h243l-17 -79h-243l-247 -1166q-33 -162 -103 -232t-190 -70q-47 0 -100 18v89q52 -16 98 -16q86 0 131.5 52t73.5 182l239 1143h-467l-247 -1166q-33 -158 -102.5 -230t-190.5 -72zM1295 0h-93l328 1525h92z" />
<glyph horiz-adv-x="2048" />
<glyph horiz-adv-x="2048" />
<glyph unicode="&#xd;" horiz-adv-x="1023" />
<glyph unicode=" "  horiz-adv-x="521" />
<glyph unicode="&#x09;" horiz-adv-x="521" />
<glyph unicode="&#xa0;" horiz-adv-x="521" />
<glyph unicode="!" horiz-adv-x="491" d="M243 369h-61l199 1064h117zM78 56q0 55 24.5 86.5t68.5 31.5q64 0 64 -70q0 -52 -24.5 -86t-66.5 -34q-66 0 -66 72z" />
<glyph unicode="&#x22;" horiz-adv-x="706" d="M446 1433l-143 -518h-60l78 518h125zM768 1433l-142 -518h-60l78 518h124z" />
<glyph unicode="#" horiz-adv-x="1296" d="M381 519l117 390h-291l8 79h304l132 445h88l-133 -445h357l133 445h84l-132 -445h279l-8 -79h-296l-116 -390h297l-7 -77h-314l-130 -442h-89l133 442h-353l-131 -442h-87l132 442h-278l8 77h293zM466 519h355l118 390h-355z" />
<glyph unicode="$" d="M909 458q0 -148 -108 -238.5t-291 -100.5l-52 -236h-81l50 236q-77 2 -154.5 17.5t-134.5 41.5v92q64 -33 150.5 -52t157.5 -19l108 502q-108 52 -150 89t-65 85.5t-23 114.5q0 152 103 245.5t267 97.5l40 188h79l-41 -188q146 -5 272 -67l-34 -76q-108 60 -251 68 l-107 -503q121 -59 168.5 -98t72 -87t24.5 -112zM526 199q139 7 219 73t80 180q0 74 -47 126.5t-154 95.5zM672 1258q-131 -8 -200.5 -78t-69.5 -182q0 -77 36 -126.5t134 -94.5z" />
<glyph unicode="%" horiz-adv-x="1524" d="M1429 1433l-1116 -1433h-104l1112 1433h108zM1490 600q0 -172 -49 -321t-133.5 -225.5t-193.5 -76.5q-110 0 -168.5 74t-58.5 219q0 157 51 306t135 225t189 76q119 0 173.5 -70t54.5 -207zM1258 805q-78 0 -143 -71.5t-104.5 -198.5t-39.5 -258q0 -113 40.5 -170 t110.5 -57q128 0 205.5 163t77.5 379q0 107 -35 160t-112 53zM745 1174q0 -171 -49 -320t-133.5 -225.5t-193.5 -76.5t-168 74t-59 219q0 157 51 305.5t135.5 224.5t188.5 76q228 0 228 -277zM514 1379q-78 0 -142.5 -70t-105 -199t-40.5 -259q0 -113 40.5 -170t110.5 -57 q83 0 146 70.5t100.5 200t37.5 271.5q0 107 -35.5 160t-111.5 53z" />
<glyph unicode="&#x26;" horiz-adv-x="1304" d="M733 1367q-122 0 -190 -66.5t-68 -188.5q0 -129 107 -275q199 87 274 160t75 179q0 89 -55.5 140t-142.5 51zM456 62q106 0 207 41.5t218 143.5l-345 483q-161 -77 -227.5 -131.5t-101.5 -121.5t-35 -156q0 -116 76.5 -187.5t207.5 -71.5zM76 318q0 158 97 271.5 t319 211.5l-40 65q-77 126 -77 246q0 154 99 248.5t259 94.5q142 0 222.5 -75t80.5 -202q0 -83 -40 -151t-118.5 -125.5t-251.5 -135.5l324 -453q71 73 132.5 172.5t89.5 182.5h109q-100 -242 -279 -427l180 -241h-121l-128 180q-119 -106 -237.5 -153t-260.5 -47 q-164 0 -261.5 92.5t-97.5 245.5z" />
<glyph unicode="'" horiz-adv-x="394" d="M452 1433l-143 -518h-60l78 518h125z" />
<glyph unicode="(" horiz-adv-x="515" d="M102 265q0 336 119.5 620t374.5 548h103q-254 -271 -377 -557t-123 -606q0 -310 124 -588h-78q-143 257 -143 583z" />
<glyph unicode=")" horiz-adv-x="515" d="M444 851q0 -338 -121 -623.5t-373 -545.5h-103q252 269 376 555.5t124 607.5q0 145 -28 288t-97 300h79q143 -257 143 -582z" />
<glyph unicode="*" horiz-adv-x="1114" d="M817 1509l-107 -397l430 8l-8 -105l-408 29l178 -393l-113 -37l-132 409l-280 -341l-76 77l311 311l-384 123l39 100l386 -165l46 400z" />
<glyph unicode="+" d="M552 659h-393v98h393v395h99v-395h393v-98h-393v-392h-99v392z" />
<glyph unicode="," horiz-adv-x="441" d="M245 233l8 -22q-33 -90 -111.5 -229t-157.5 -241h-72q77 130 138 266t86 226h109z" />
<glyph unicode="-" horiz-adv-x="616" d="M80 492l18 88h448l-16 -88h-450z" />
<glyph unicode="." horiz-adv-x="475" d="M80 54q0 55 24.5 86.5t67.5 31.5q65 0 65 -70q0 -52 -24.5 -86t-65.5 -34q-67 0 -67 72z" />
<glyph unicode="/" horiz-adv-x="628" d="M810 1433l-800 -1433h-108l799 1433h109z" />
<glyph unicode="0" d="M1054 996q0 -197 -40.5 -397t-114.5 -339t-180 -209.5t-237 -70.5q-172 0 -259 124t-87 380q0 182 43.5 374t121.5 327.5t183.5 202.5t235.5 67q334 0 334 -459zM709 1369q-132 0 -237 -110.5t-170 -322.5t-65 -442q0 -218 61.5 -322.5t193.5 -104.5q136 0 239 109.5 t163 330t60 479.5q0 195 -58.5 289t-186.5 94z" />
<glyph unicode="1" d="M526 0h-103l221 1034q18 90 72 287q-41 -35 -73.5 -59.5t-244.5 -158.5l-51 77l398 253h88z" />
<glyph unicode="2" d="M891 0h-853l22 102l440 394q194 173 278 270.5t124 183t40 176.5q0 110 -65 174.5t-193 64.5q-172 0 -326 -126l-53 71q176 143 386 143q169 0 263 -83t94 -232q0 -108 -43 -204.5t-139 -207.5t-304 -297l-376 -331v-4h721z" />
<glyph unicode="3" d="M1028 1151q0 -159 -104 -270t-280 -140v-4q115 -24 182 -113.5t67 -221.5t-63 -229t-176 -145t-269 -48q-94 0 -180.5 20.5t-150.5 51.5v99q168 -84 337 -84q193 0 297.5 87.5t104.5 247.5q0 142 -87.5 218.5t-241.5 76.5h-115l20 94h108q205 0 326.5 93.5t121.5 253.5 q0 112 -62 171.5t-185 59.5q-164 0 -337 -128l-48 73q82 66 184 102.5t214 36.5q158 0 247.5 -80.5t89.5 -221.5z" />
<glyph unicode="4" d="M1050 364h-259l-79 -364h-94l79 364h-674l19 94l864 989h115l-211 -997h260zM714 450q78 361 117 547t84 348h-4q-64 -90 -126 -163l-638 -732h567z" />
<glyph unicode="5" d="M570 861q185 0 287 -99.5t102 -273.5q0 -232 -145 -370t-398 -138q-83 0 -174.5 20t-155.5 50v105q167 -88 333 -88q204 0 322 112t118 307q0 137 -83 215t-220 78q-131 0 -238 -40l-65 48l189 646h612l-18 -94h-530l-146 -506q96 28 210 28z" />
<glyph unicode="6" d="M167 419q0 278 102.5 534t264 377t375.5 121q121 0 179 -20l-18 -88q-84 22 -166 22q-229 0 -386 -170.5t-229 -491.5h8q67 92 161 140t206 48q158 0 246 -98.5t88 -277.5q0 -152 -59 -274.5t-168 -191.5t-252 -69q-167 0 -259.5 117t-92.5 322zM532 67q110 0 193 57 t127.5 158.5t44.5 225.5q0 143 -66 220t-191 77q-79 0 -151 -31t-126.5 -85.5t-76 -113t-21.5 -169.5q0 -161 71 -250t196 -89z" />
<glyph unicode="7" d="M239 0l780 1339h-750l22 94h841l-20 -108l-763 -1325h-110z" />
<glyph unicode="8" d="M722 1455q160 0 253 -83t93 -224q0 -136 -82 -230.5t-279 -168.5q127 -77 186 -167.5t59 -204.5q0 -113 -57 -203.5t-162.5 -142t-255.5 -51.5q-174 0 -277.5 91t-103.5 248q0 156 98.5 263.5t315.5 183.5q-98 71 -141.5 149.5t-43.5 176.5q0 156 112 259.5t285 103.5z M598 718q-214 -71 -307.5 -163.5t-93.5 -221.5q0 -133 76 -202t215 -69q165 0 265 89t100 228q0 102 -61 185.5t-194 153.5zM712 1371q-127 0 -210 -80.5t-83 -198.5q0 -89 41 -156t154 -139q189 61 274 141t85 202q0 107 -69 169t-192 62z" />
<glyph unicode="9" d="M1038 1011q0 -282 -99.5 -536.5t-258.5 -374.5t-385 -120q-112 0 -182 22v88q85 -28 188 -28q464 0 614 660h-8q-137 -188 -359 -188q-159 0 -250 103t-91 278q0 152 58 275.5t167 192t252 68.5q171 0 262.5 -113t91.5 -327zM672 1365q-109 0 -193 -57.5t-128 -159 t-44 -225.5q0 -142 66 -220.5t189 -78.5q81 0 154 32t126.5 86t75 111.5t21.5 172.5q0 163 -69.5 251t-197.5 88z" />
<glyph unicode=":" horiz-adv-x="475" d="M255 969q0 56 25 87.5t67 31.5q65 0 65 -71q0 -54 -24.5 -87t-66.5 -33q-66 0 -66 72zM100 54q0 55 25 86.5t68 31.5q64 0 64 -70q0 -54 -25 -87t-65 -33q-67 0 -67 72z" />
<glyph unicode=";" horiz-adv-x="475" d="M281 233l8 -22q-34 -94 -116 -237.5t-153 -232.5h-72q77 130 138 266t86 226h109zM261 969q0 56 25 87.5t67 31.5q64 0 64 -71q0 -54 -24.5 -87t-65.5 -33q-66 0 -66 72z" />
<glyph unicode="&#x3c;" d="M1030 257l-896 405v73l896 462v-101l-785 -391l785 -343v-105z" />
<glyph unicode="=" d="M165 867v98h885v-98h-885zM165 452v96h885v-96h-885z" />
<glyph unicode="&#x3e;" d="M167 362l785 343l-785 391v101l896 -462v-73l-896 -405v105z" />
<glyph unicode="?" horiz-adv-x="783" d="M237 355l6 28q28 130 80 203t154 144q116 82 172 142.5t84.5 125t28.5 138.5q0 106 -66 166.5t-179 60.5q-136 0 -300 -99l-39 84q84 48 168.5 76.5t183.5 28.5q156 0 245.5 -82.5t89.5 -224.5q0 -125 -64.5 -230t-226.5 -221q-83 -60 -129.5 -106.5t-71.5 -93 t-46 -140.5h-90zM167 58q0 55 24.5 86.5t67.5 31.5q64 0 64 -69q0 -53 -24 -87t-66 -34q-66 0 -66 72z" />
<glyph unicode="@" horiz-adv-x="1689" d="M1654 841q0 -176 -55 -317.5t-151.5 -222.5t-206.5 -81q-96 0 -151.5 54t-55.5 142h-4q-53 -96 -130 -146t-165 -50q-110 0 -174.5 72t-64.5 198q0 153 61.5 277.5t174.5 194.5t256 70q119 0 247 -51l-83 -309q-38 -137 -38 -216q0 -70 34 -109.5t99 -39.5q84 0 156.5 72 t115 194t42.5 246q0 153 -63.5 271.5t-183 184.5t-286.5 66q-230 0 -416 -106.5t-289.5 -298t-103.5 -430.5q0 -283 151.5 -440.5t426.5 -157.5q203 0 411 80v-88q-205 -80 -419 -80q-199 0 -350.5 80.5t-234 234t-82.5 363.5q0 270 119.5 483.5t330.5 330.5t464 117 q185 0 323.5 -71t216.5 -209t78 -308zM988 950q-111 0 -200.5 -58t-139.5 -162.5t-50 -233.5q0 -90 39.5 -139.5t111.5 -49.5q99 0 177 87t122 250l76 283q-65 23 -136 23z" />
<glyph unicode="A" horiz-adv-x="1037" d="M789 510h-502l-281 -510h-115l806 1439h65l197 -1439h-102zM777 600l-38 285q-30 237 -38 394q-30 -62 -63.5 -127.5t-300.5 -551.5h440z" />
<glyph unicode="B" horiz-adv-x="1177" d="M404 1433h371q186 0 284.5 -82.5t98.5 -236.5q0 -150 -88 -244t-249 -121v-4q123 -31 185 -111.5t62 -200.5q0 -201 -137.5 -317t-382.5 -116h-448zM369 795h273q202 0 307 79.5t105 232.5q0 117 -76.5 177.5t-224.5 60.5h-267zM351 707l-132 -619h335q197 0 303 86 t106 251q0 142 -88 212t-269 70h-255z" />
<glyph unicode="C" horiz-adv-x="1145" d="M942 1361q-193 0 -344.5 -102.5t-240 -298.5t-88.5 -432q0 -220 108 -338.5t311 -118.5q137 0 298 50v-93q-153 -48 -310 -48q-247 0 -378 142.5t-131 401.5q0 261 102 478.5t278.5 334t394.5 116.5q173 0 301 -66l-44 -89q-54 30 -122.5 46.5t-134.5 16.5z" />
<glyph unicode="D" horiz-adv-x="1323" d="M1262 861q0 -248 -107 -452t-294.5 -306.5t-437.5 -102.5h-323l304 1433h299q276 0 417.5 -144.5t141.5 -427.5zM421 88q222 0 387 92.5t255.5 270t90.5 404.5q0 488 -466 488h-202l-269 -1255h204z" />
<glyph unicode="E" horiz-adv-x="1045" d="M812 0h-712l304 1433h712l-20 -92h-612l-115 -542h579l-21 -92h-576l-132 -615h614z" />
<glyph unicode="F" horiz-adv-x="961" d="M201 0h-101l304 1433h694l-20 -92h-592l-131 -608h558l-20 -93h-558z" />
<glyph unicode="G" horiz-adv-x="1346" d="M839 720h398l-147 -668q-207 -72 -397 -72q-252 0 -389 143.5t-137 412.5q0 260 102.5 474t277.5 328.5t388 114.5q111 0 199 -18.5t180 -57.5l-37 -92q-108 45 -186 60.5t-164 15.5q-180 0 -332 -105t-239 -295.5t-87 -424.5q0 -224 112 -344.5t320 -120.5q152 0 303 46 l114 515h-297z" />
<glyph unicode="H" horiz-adv-x="1338" d="M1042 0h-98l148 705h-745l-146 -705h-101l304 1433h100l-136 -636h744l135 636h98z" />
<glyph unicode="I" horiz-adv-x="493" d="M100 0l304 1433h96l-303 -1433h-97z" />
<glyph unicode="J" horiz-adv-x="467" d="M-176 -353q-47 0 -86.5 8t-55.5 16l11 90q56 -20 135 -20q208 0 256 236l303 1456h103l-308 -1461q-34 -167 -122 -246t-236 -79z" />
<glyph unicode="K" horiz-adv-x="1099" d="M959 0h-108l-336 772l-186 -150l-128 -622h-101l304 1433h100l-155 -709l130 119l667 590h135l-685 -598z" />
<glyph unicode="L" horiz-adv-x="919" d="M100 0l304 1433h100l-284 -1339h609l-22 -94h-707z" />
<glyph unicode="M" horiz-adv-x="1635" d="M757 201l718 1232h147l-295 -1433h-99l187 883q78 362 98 438h-6l-764 -1321h-50l-218 1321h-6q-19 -151 -76 -417l-192 -904h-94l303 1433h140l201 -1232h6z" />
<glyph unicode="N" horiz-adv-x="1344" d="M1048 0h-85l-505 1258h-8q-23 -146 -47.5 -267.5t-209.5 -990.5h-93l304 1433h78l512 -1268h8q22 172 72 407l184 861h92z" />
<glyph unicode="O" horiz-adv-x="1434" d="M1375 893q0 -250 -92 -472t-247 -331.5t-358 -109.5q-245 0 -377 146t-132 422q0 257 91 468t249.5 324t365.5 113q242 0 371 -145.5t129 -414.5zM861 1361q-170 0 -302 -99t-210.5 -292t-78.5 -408q0 -241 107.5 -366t313.5 -125q166 0 294 96.5t205.5 294t77.5 421.5 q0 235 -102.5 356.5t-304.5 121.5z" />
<glyph unicode="P" horiz-adv-x="1122" d="M1122 1080q0 -490 -598 -490h-197l-126 -590h-101l304 1433h308q198 0 304 -91t106 -262zM343 680h187q247 0 366 94.5t119 299.5q0 269 -322 269h-207z" />
<glyph unicode="Q" horiz-adv-x="1434" d="M1375 893q0 -212 -68.5 -410t-183 -317.5t-268.5 -163.5l261 -343h-139l-226 325l-73 -4q-245 0 -377 146t-132 422q0 257 91 468t249.5 324t365.5 113q242 0 371 -145.5t129 -414.5zM861 1361q-170 0 -302 -99t-210.5 -292t-78.5 -408q0 -241 107.5 -366t313.5 -125 q166 0 294 96.5t205.5 294t77.5 421.5q0 235 -102.5 356.5t-304.5 121.5z" />
<glyph unicode="R" horiz-adv-x="1122" d="M329 620l-128 -620h-101l304 1433h297q421 0 421 -353q0 -178 -101.5 -297t-275.5 -149q197 -579 216 -634h-108l-207 620h-317zM351 710h247q204 0 310.5 94t106.5 276q0 263 -322 263h-207z" />
<glyph unicode="S" horiz-adv-x="999" d="M877 395q0 -124 -64 -220.5t-176 -145.5t-264 -49q-86 0 -168.5 17t-168.5 57v107q160 -90 341 -90q185 0 290 84.5t105 227.5q0 60 -16.5 102.5t-51.5 77t-89 67t-129 73.5q-147 74 -205.5 160.5t-58.5 201.5q0 116 58 203.5t162 136t232 48.5q97 0 176.5 -17t164.5 -59 l-31 -92q-65 39 -148.5 61.5t-161.5 22.5q-160 0 -254.5 -81t-94.5 -214q0 -101 48 -166.5t179 -130.5q151 -77 209 -127t87 -111t29 -144z" />
<glyph unicode="T" horiz-adv-x="965" d="M429 0h-100l283 1341h-423l20 92h953l-18 -92h-432z" />
<glyph unicode="U" horiz-adv-x="1342" d="M1367 1433l-203 -958q-57 -264 -193 -379.5t-367 -115.5q-432 0 -432 393q0 82 27 197l182 863h101l-189 -881q-20 -87 -20 -181q0 -302 336 -302q191 0 301 94.5t155 311.5l203 958h99z" />
<glyph unicode="V" horiz-adv-x="1057" d="M448 144q50 109 121 242l561 1047h115l-783 -1433h-87l-178 1433h98l115 -931q25 -213 34 -358h4z" />
<glyph unicode="W" horiz-adv-x="1667" d="M998 1314q-27 -74 -61 -150t-552 -1164h-80l-72 1433h98l46 -1011l4 -161l-2 -85h6q83 222 167 390l425 867h103l60 -861q18 -260 18 -401h6q30 84 60.5 159.5t483.5 1102.5h106q-166 -358 -324 -716.5t-322 -716.5h-76l-77 1054q-11 139 -11 214l1 46h-7z" />
<glyph unicode="X" horiz-adv-x="951" d="M861 0h-104l-249 664l-516 -664h-124l596 751l-267 682h104l235 -614l473 614h117l-544 -705z" />
<glyph unicode="Y" horiz-adv-x="945" d="M484 632l533 801h115l-618 -914l-106 -519h-103l116 534l-232 899h98z" />
<glyph unicode="Z" d="M895 0h-907l22 90l1047 1251h-748l22 92h869l-18 -86l-1048 -1255h783z" />
<glyph unicode="[" horiz-adv-x="526" d="M362 -318h-418l369 1751h420l-19 -88h-323l-333 -1573h323z" />
<glyph unicode="\" horiz-adv-x="628" d="M289 1433l237 -1433h-80l-241 1433h84z" />
<glyph unicode="]" horiz-adv-x="526" d="M199 1433h417l-369 -1751h-419l17 90h324l333 1573h-324z" />
<glyph unicode="^" horiz-adv-x="1026" d="M69 558l575 888h89l255 -888h-103l-213 792l-490 -792h-113z" />
<glyph unicode="_" horiz-adv-x="784" d="M612 -285h-790l17 84h791z" />
<glyph unicode="`" horiz-adv-x="1112" d="M751 1216h-65q-49 51 -111.5 141.5t-97.5 159.5v21h113q45 -127 161 -297v-25z" />
<glyph unicode="a" horiz-adv-x="1110" d="M642 1082q227 0 273 -215h6l58 198h78l-224 -1065h-80l44 269h-6q-82 -140 -183 -214.5t-233 -74.5q-275 0 -275 367q0 193 73.5 368.5t196.5 271t272 95.5zM398 69q87 0 174 60.5t156 162.5t105 225.5t36 208.5q0 78 -25.5 139t-75.5 97t-124 36q-122 0 -220 -80.5 t-160.5 -241t-62.5 -318.5q0 -149 49 -219t148 -70z" />
<glyph unicode="b" horiz-adv-x="1127" d="M490 -16q-111 0 -182.5 58t-94.5 163h-6l-54 -205h-79l321 1525h93q-128 -616 -159 -736h6q91 153 195 225t227 72q275 0 275 -368q0 -199 -74.5 -372.5t-197 -267.5t-270.5 -94zM735 998q-89 0 -176.5 -60.5t-157.5 -166.5t-104 -230.5t-34 -201.5q0 -126 62.5 -198 t162.5 -72q122 0 220 81t160.5 240t62.5 319q0 149 -48 219t-148 70z" />
<glyph unicode="c" horiz-adv-x="869" d="M467 -20q-170 0 -268.5 108.5t-98.5 300.5q0 189 72 354t194.5 252t284.5 87q131 0 236 -42l-28 -88q-104 46 -213 46q-127 0 -228 -75.5t-159 -217.5t-58 -314q0 -155 72 -238.5t204 -83.5q70 0 129 12.5t129 44.5v-90q-114 -56 -268 -56z" />
<glyph unicode="d" horiz-adv-x="1110" d="M642 1082q225 0 273 -215h4q12 65 140 658h97l-323 -1525h-80l44 269h-6q-170 -289 -416 -289q-275 0 -275 367q0 189 70 362.5t193.5 273t278.5 99.5zM398 69q87 0 175 61t157 164.5t104 226.5t35 205q0 124 -60 198t-165 74q-122 0 -220 -81.5t-160.5 -238 t-62.5 -320.5q0 -289 197 -289z" />
<glyph unicode="e" horiz-adv-x="909" d="M460 -20q-170 0 -265 107.5t-95 299.5q0 177 69.5 340t191.5 259t269 96q112 0 178.5 -60t66.5 -163q0 -177 -160 -270t-476 -93h-32q-6 -43 -6 -96q0 -162 72.5 -246.5t208.5 -84.5q130 0 271 71v-92q-138 -68 -293 -68zM618 998q-128 0 -238 -113.5t-160 -302.5h49 q506 0 506 265q0 65 -42.5 108t-114.5 43z" />
<glyph unicode="f" horiz-adv-x="566" d="M-128 -482q-47 0 -100 18v89q52 -16 98 -16q86 0 131 52t73 182l242 1143h-201l13 66l201 13l35 157q34 165 114 239.5t223 74.5q71 0 162 -31l-24 -78q-85 26 -144 26q-94 0 -150.5 -52.5t-82.5 -174.5l-35 -161h243l-15 -79h-243l-247 -1166q-33 -158 -102.5 -230 t-190.5 -72z" />
<glyph unicode="g" horiz-adv-x="1019" d="M1078 1065l-17 -77l-238 -11q26 -27 43 -82t17 -112q0 -107 -53.5 -202.5t-145 -142.5t-209.5 -47q-61 0 -75 9q-79 -32 -122 -71.5t-43 -79.5t31 -63t111 -31l119 -11q339 -30 339 -259q0 -109 -63.5 -193t-183.5 -129t-285 -45q-182 0 -285.5 70.5t-103.5 198.5 q0 232 303 328q-77 41 -77 120q0 121 187 198q-69 35 -108 103.5t-39 154.5q0 109 52.5 200t145 143t202.5 52q68 0 144 -21h354zM14 -203q0 -99 79 -147t220 -48q199 0 310.5 73t111.5 201q0 83 -61.5 127.5t-213.5 56.5l-157 14q-154 -44 -221.5 -112t-67.5 -165zM279 697 q0 -110 57.5 -167t161.5 -57q86 0 150.5 36.5t100.5 112t36 165.5q0 102 -55 158.5t-154 56.5q-91 0 -157.5 -42.5t-103 -114t-36.5 -148.5z" />
<glyph unicode="h" horiz-adv-x="1120" d="M749 0l146 678q20 90 20 153q0 78 -42.5 122.5t-131.5 44.5q-110 0 -206.5 -66t-162.5 -184.5t-102 -280.5l-99 -467h-97l326 1525h94l-84 -403q-43 -196 -65 -273h6q76 110 182.5 171.5t225.5 61.5q121 0 187.5 -63.5t66.5 -179.5q0 -69 -23 -178l-145 -661h-96z" />
<glyph unicode="i" horiz-adv-x="465" d="M171 0h-97l227 1065h94zM343 1339q0 54 21.5 86t58.5 32q56 0 56 -70q0 -56 -21.5 -88.5t-55.5 -32.5q-29 0 -44 19t-15 54z" />
<glyph unicode="j" horiz-adv-x="465" d="M-163 -482q-60 0 -110 18v91q46 -22 110 -22q81 0 126.5 50.5t70.5 173.5l261 1236h94l-263 -1245q-34 -162 -104 -232t-185 -70zM343 1339q0 54 21.5 86t58.5 32q56 0 56 -70q0 -56 -21.5 -88.5t-55.5 -32.5q-29 0 -44 19t-15 54z" />
<glyph unicode="k" horiz-adv-x="925" d="M265 467l596 598h123l-465 -459l291 -606h-103l-259 548l-201 -184l-78 -364h-95l324 1525h94l-163 -765l-68 -293h4z" />
<glyph unicode="l" horiz-adv-x="465" d="M167 0h-93l328 1525h92z" />
<glyph unicode="m" horiz-adv-x="1715" d="M697 0l144 661q24 122 24 158q0 179 -151 179q-103 0 -195.5 -66.5t-156 -185t-97.5 -280.5l-98 -466h-96l226 1065h78l-32 -206h6q78 111 177.5 167t208.5 56q104 0 160 -65.5t59 -191.5h5q76 127 178 192t217 65t179 -60.5t64 -172.5q0 -29 -2.5 -56t-18.5 -117 l-149 -676h-98l146 666q24 118 24 173q0 75 -42 117t-116 42q-154 0 -272 -135t-165 -355l-107 -508h-100z" />
<glyph unicode="n" horiz-adv-x="1120" d="M749 0l146 678q20 90 20 153q0 78 -42.5 122.5t-131.5 44.5q-110 0 -206.5 -66t-162.5 -184t-102 -281l-99 -467h-97l227 1065h80l-36 -216h6q161 233 408 233q127 0 190.5 -63t63.5 -180q0 -69 -23 -178l-145 -661h-96z" />
<glyph unicode="o" horiz-adv-x="1101" d="M636 1086q176 0 272.5 -106.5t96.5 -293.5q0 -193 -70 -361t-191.5 -256.5t-279.5 -88.5q-181 0 -274.5 107.5t-93.5 307.5q0 187 71.5 350.5t193 252t275.5 88.5zM628 1002q-121 0 -218 -77t-155 -220.5t-58 -304.5q0 -335 276 -335q125 0 221.5 76t154 223.5 t57.5 323.5q0 151 -72 232.5t-206 81.5z" />
<glyph unicode="p" horiz-adv-x="1126" d="M488 -16q-225 0 -273 215h-4q-13 -71 -146 -681h-97l329 1547h80l-44 -268h6q89 150 191.5 219.5t224.5 69.5q132 0 203.5 -90.5t71.5 -277.5q0 -191 -70.5 -363.5t-193.5 -271.5t-278 -99zM733 998q-85 0 -170.5 -57.5t-158.5 -164.5t-108 -233t-35 -204q0 -122 60 -196 t165 -74q122 0 221 82t160.5 238.5t61.5 319.5q0 289 -196 289z" />
<glyph unicode="q" horiz-adv-x="1133" d="M638 1082q107 0 180 -57t97 -164h6l54 204h79l-321 -1525h-93l96 461l63 276h-6q-91 -153 -195 -225t-227 -72q-275 0 -275 367q0 197 74 371.5t196.5 269t271.5 94.5zM393 69q90 0 178.5 61t157.5 168t102.5 232t33.5 196q0 128 -62 200t-163 72q-122 0 -220 -81.5 t-160.5 -240.5t-62.5 -318q0 -140 44.5 -214.5t151.5 -74.5z" />
<glyph unicode="r" horiz-adv-x="736" d="M699 1084q67 0 120 -14l-20 -91q-46 15 -111 15q-92 0 -175.5 -63t-150 -188.5t-97.5 -271.5l-98 -471h-96l226 1065h78l-28 -200h6q71 92 120 133t104.5 63.5t121.5 22.5z" />
<glyph unicode="s" horiz-adv-x="810" d="M699 289q0 -141 -101 -225t-275 -84q-169 0 -299 74v105q73 -45 150.5 -69.5t144.5 -24.5q136 0 207.5 56t71.5 160q0 41 -15.5 72.5t-49 60.5t-129.5 84q-145 78 -196 142.5t-51 156.5q0 125 96.5 205t254.5 80q73 0 155 -17t138 -46l-35 -86q-133 63 -258 63 q-114 0 -182.5 -52t-68.5 -136q0 -53 16.5 -85.5t59 -67.5t117.5 -75q112 -62 158.5 -101.5t68.5 -84.5t22 -105z" />
<glyph unicode="t" horiz-adv-x="603" d="M680 1065l-18 -79h-277l-132 -622q-22 -97 -22 -161q0 -136 124 -136q66 0 149 25v-84q-99 -28 -167 -28q-97 0 -150 53.5t-53 155.5q0 72 29 202l126 595h-178l13 66l181 16l95 248h54l-54 -251h280z" />
<glyph unicode="u" horiz-adv-x="1120" d="M373 1065l-149 -684q-21 -104 -21 -155q0 -72 46.5 -114.5t135.5 -42.5q108 0 203.5 64t160.5 183t98 274l103 475h96l-227 -1065h-78l27 201h-6q-163 -217 -394 -217q-129 0 -195 61t-66 177q0 59 21 167l147 676h98z" />
<glyph unicode="v" horiz-adv-x="877" d="M270 0l-168 1065h99l106 -720q25 -162 32 -249h6q50 113 126 251l398 718h100l-588 -1065h-111z" />
<glyph unicode="w" horiz-adv-x="1365" d="M821 0l-59 672q-13 220 -13 261h-6q-33 -90 -141 -284l-349 -649h-115l-19 1065h90l12 -804l-2 -154h5q60 131 147 291l366 667h75l63 -667q14 -144 14 -291h6l23 60l99 231l314 667h94l-498 -1065h-106z" />
<glyph unicode="x" horiz-adv-x="903" d="M433 473l-385 -473h-119l462 548l-240 517h98l203 -453l365 453h118l-439 -523l253 -542h-96z" />
<glyph unicode="y" horiz-adv-x="901" d="M121 1065h98l80 -537q50 -344 54 -440h11q42 103 182 360l341 617h101l-699 -1264q-70 -124 -119.5 -174t-112 -79.5t-143.5 -29.5q-67 0 -127 20v91q70 -27 135 -27q78 0 143.5 48.5t127.5 161.5t98 180z" />
<glyph unicode="z" horiz-adv-x="869" d="M686 0h-714l14 71l761 913h-532l16 81h646l-18 -81l-746 -902h590z" />
<glyph unicode="{" horiz-adv-x="694" d="M416 -318q-251 0 -251 196q0 44 15 112l55 247q18 88 18 125q0 155 -195 155l20 77q124 0 187.5 48t87.5 155l87 385q29 132 103.5 191.5t211.5 59.5h28l-17 -85q-84 -1 -126 -19.5t-68 -60.5t-44 -117l-72 -332q-30 -131 -90 -190.5t-161 -76.5v-4q66 -18 103 -67.5 t37 -118.5q0 -51 -24 -161l-46 -221q-12 -56 -12 -99q0 -59 36.5 -86.5t135.5 -27.5v-85h-19z" />
<glyph unicode="|" d="M572 1530h98v-2030h-98v2030z" />
<glyph unicode="}" horiz-adv-x="694" d="M325 1433q129 0 186 -50t57 -144q0 -40 -16 -113l-54 -247q-19 -93 -19 -124q0 -76 48.5 -116.5t146.5 -40.5l-19 -77q-123 0 -187.5 -47.5t-88.5 -154.5l-86 -386q-31 -136 -106 -193.5t-210 -57.5h-17v85q94 2 135 20.5t67 59.5t43 119l72 331q27 123 86 185.5 t165 81.5v4q-73 20 -107 71.5t-34 115.5q0 53 18 128l53 253q11 60 11 99q0 43 -17.5 67.5t-52.5 35t-114 10.5l20 85h20z" />
<glyph unicode="~" d="M343 730q-48 0 -106 -30t-113 -88v93q106 107 229 107q60 0 112.5 -13t152.5 -56q124 -57 215 -57q53 0 105.5 28.5t115.5 93.5v-94q-109 -110 -229 -110q-115 0 -265 70q-61 29 -110.5 42.5t-106.5 13.5z" />
<glyph unicode="&#xa1;" horiz-adv-x="491" d="M259 697h60l-198 -1065h-117zM423 1009q0 -54 -24.5 -86t-67.5 -32q-64 0 -64 70q0 54 24.5 87.5t66.5 33.5q65 0 65 -73z" />
<glyph unicode="&#xa2;" d="M566 -20h-91l44 211q-129 25 -201.5 130t-72.5 267q0 180 62 334t174.5 248t251.5 109l35 174h89l-38 -172q114 -4 213 -42l-28 -88q-105 46 -213 46q-128 0 -228.5 -74.5t-159 -217t-58.5 -315.5q0 -161 73 -242t204 -81q125 0 259 58v-90q-116 -57 -275 -57z" />
<glyph unicode="&#xa3;" d="M861 1449q167 0 307 -76l-38 -82l-53 25q-106 49 -226 49q-132 0 -216.5 -73t-115.5 -216l-71 -333h401l-18 -81h-400l-56 -262q-49 -221 -184 -308h744l-20 -92h-919l16 82q91 11 162 94t105 232l56 254h-195l17 81h194l74 343q41 183 152.5 273t283.5 90z" />
<glyph unicode="&#xa4;" d="M257 709q0 115 72 220l-126 126l62 63l124 -126q103 76 225 76q116 0 219 -76l128 126l60 -61l-126 -126q76 -104 76 -222q0 -133 -76 -223l126 -124l-60 -61l-128 124q-102 -74 -219 -74q-123 0 -223 78l-126 -126l-60 61l124 124q-72 96 -72 221zM343 709 q0 -114 78.5 -193t192.5 -79q115 0 195 79.5t80 192.5q0 73 -36 136.5t-100.5 102t-138.5 38.5q-111 0 -191 -80.5t-80 -196.5z" />
<glyph unicode="&#xa5;" d="M572 632l533 801h115l-548 -807h261l-16 -74h-308l-39 -186h311l-18 -83h-309l-58 -283h-103l63 283h-293l17 83h293l41 186h-295l16 74h253l-211 807h98z" />
<glyph unicode="&#xa6;" d="M566 1530h98v-741h-98v741zM566 241h98v-741h-98v741z" />
<glyph unicode="&#xa7;" horiz-adv-x="975" d="M207 762q0 99 68 178.5t194 127.5q-62 31 -101 84t-39 118q0 73 45 132t130 92.5t199 33.5q159 0 283 -57l-30 -78q-136 53 -259 53q-122 0 -199 -46t-77 -121q0 -58 45.5 -102.5t179.5 -104.5q110 -51 155.5 -87.5t69.5 -83t24 -108.5q0 -193 -244 -311 q119 -63 119 -193q0 -84 -47 -150t-136.5 -103.5t-217.5 -37.5q-153 0 -269 52v97q46 -26 123.5 -45.5t149.5 -19.5q146 0 223.5 51.5t77.5 147.5q0 61 -41.5 104t-163.5 94q-151 64 -206.5 127.5t-55.5 155.5zM548 1017q-117 -29 -184 -95t-67 -152q0 -56 24 -94.5 t79.5 -71.5t183.5 -80q101 48 159 111.5t58 153.5q0 70 -56.5 123t-196.5 105z" />
<glyph unicode="&#xa8;" horiz-adv-x="1112" d="M819 1339q0 48 20 76.5t56 28.5q53 0 53 -63q0 -47 -21 -75.5t-54 -28.5q-54 0 -54 62zM482 1339q0 48 20 76.5t56 28.5q53 0 53 -63q0 -47 -21 -75.5t-54 -28.5q-54 0 -54 62z" />
<glyph unicode="&#xa9;" horiz-adv-x="1669" d="M925 1070q-139 0 -218 -92.5t-79 -259.5q0 -182 73 -269t216 -87q84 0 195 42v-86q-102 -45 -205 -45q-183 0 -282 114t-99 323q0 203 108 325.5t291 122.5q117 0 223 -51l-36 -81q-97 44 -187 44zM144 716q0 196 98 367.5t269.5 270.5t369.5 99q196 0 367.5 -98 t270.5 -269.5t99 -369.5q0 -193 -95 -362.5t-266.5 -271.5t-375.5 -102q-203 0 -374.5 101.5t-267 271t-95.5 363.5zM235 716q0 -174 87 -322.5t236 -235.5t323 -87q171 0 319 83.5t238 234t90 327.5q0 175 -87.5 324t-236 236t-323.5 87q-178 0 -328 -90t-234 -238 t-84 -319z" />
<glyph unicode="&#xaa;" horiz-adv-x="630" d="M477 1455q54 0 95.5 -28.5t65.5 -83.5h6l34 101h65l-134 -637h-71l22 122h-4q-94 -134 -219 -134q-78 0 -124 55.5t-46 160.5q0 186 88.5 315t221.5 129zM362 867q64 0 130.5 74t95.5 181q16 50 16 121q0 56 -35.5 98t-91.5 42q-92 0 -158 -109.5t-66 -266.5 q0 -140 109 -140z" />
<glyph unicode="&#xab;" horiz-adv-x="842" d="M417 913l56 -48l-310 -329l208 -377l-62 -38l-249 409l2 26zM770 913l57 -48l-308 -329l205 -377l-62 -38l-248 409l2 26z" />
<glyph unicode="&#xac;" d="M1007 757v-490h-98v392h-787v98h885z" />
<glyph unicode="&#xad;" horiz-adv-x="616" d="M75 492l18 88h448l-16 -88h-450z" />
<glyph unicode="&#xae;" horiz-adv-x="1669" d="M743 716h110q91 0 141 46t50 133q0 168 -193 168h-108v-347zM1146 900q0 -79 -39 -138.5t-107 -91.5l232 -385h-118l-207 353h-164v-353h-99v863h207q140 0 217.5 -61t77.5 -187zM147 716q0 203 101.5 374.5t271 267t363.5 95.5q196 0 367.5 -98t270.5 -269.5t99 -369.5 q0 -193 -95 -362.5t-266.5 -271.5t-375.5 -102q-200 0 -369 98.5t-268 267.5t-99 370zM237 716q0 -174 87 -322.5t236 -235.5t323 -87q171 0 318.5 83.5t238 234t90.5 327.5q0 175 -87.5 324t-236 236t-323.5 87q-178 0 -328 -90t-234 -238t-84 -319z" />
<glyph unicode="&#xaf;" horiz-adv-x="641" d="M981 1525h-640l52 95h641z" />
<glyph unicode="&#xb0;" horiz-adv-x="859" d="M237 1166q0 118 83.5 202.5t203.5 84.5t203 -84.5t83 -202.5q0 -119 -83.5 -203t-202.5 -84t-203 84t-84 203zM309 1166q0 -87 63 -149.5t152 -62.5q90 0 152.5 62.5t62.5 149.5q0 88 -63 152.5t-152 64.5q-88 0 -151.5 -64.5t-63.5 -152.5z" />
<glyph unicode="&#xb1;" d="M517 616h-393v96h393v398h99v-398h393v-96h-393v-392h-99v392zM124 0v98h885v-98h-885z" />
<glyph unicode="&#xb2;" horiz-adv-x="630" d="M592 574h-512l16 79l291 253q134 115 179 186t45 151q0 57 -38 94.5t-104 37.5q-93 0 -190 -75l-40 61q106 88 234 88q72 0 123 -26.5t77 -70.5t26 -98q0 -103 -58 -194t-179 -191l-261 -218h408z" />
<glyph unicode="&#xb3;" horiz-adv-x="630" d="M691 1250q0 -83 -47.5 -144.5t-151.5 -86.5v-4q65 -15 103.5 -66t38.5 -122q0 -75 -38 -138t-107 -97t-158 -34q-58 0 -121 15t-103 39v89q45 -28 105.5 -47.5t122.5 -19.5q97 0 156 51.5t59 139.5q0 159 -192 159h-83l16 77h84q100 0 165.5 48.5t65.5 127.5 q0 66 -37 100t-103 34q-98 0 -196 -67l-39 63q107 84 246 84q98 0 156 -55t58 -146z" />
<glyph unicode="&#xb4;" horiz-adv-x="1112" d="M568 1237q65 50 148 139t127 162h134v-23q-50 -65 -154.5 -155.5t-188.5 -143.5h-66v21z" />
<glyph unicode="&#xb5;" horiz-adv-x="1147" d="M233 237q0 -80 47.5 -124t133.5 -44q107 0 202 63t159.5 178.5t99.5 279.5l102 475h97l-229 -1065h-77l29 201h-6q-161 -217 -396 -217q-83 0 -136 32t-75 88h-6q-17 -129 -50 -278l-61 -308h-95l331 1547h99l-149 -684q-20 -94 -20 -144z" />
<glyph unicode="&#xb6;" horiz-adv-x="1314" d="M1184 -255h-98v1688h-223v-1688h-99v803q-62 -18 -142 -18q-211 0 -311 122.5t-100 368.5q0 255 106.5 379.5t335.5 124.5h531v-1780z" />
<glyph unicode="&#xb7;" horiz-adv-x="475" d="M202 684q0 55 24.5 86.5t67.5 31.5q65 0 65 -70q0 -52 -24.5 -86t-65.5 -34q-67 0 -67 72z" />
<glyph unicode="&#xb8;" horiz-adv-x="411" d="M193 -283q0 -92 -74 -145.5t-213 -53.5q-45 0 -77 7v77q30 -6 71 -6q194 0 194 113q0 95 -148 105l108 186h78l-76 -134q137 -30 137 -149z" />
<glyph unicode="&#xb9;" horiz-adv-x="630" d="M502 1433h78l-182 -859h-82l115 558q5 20 11.5 49t14 59t15 58t14.5 49q-33 -31 -58.5 -51t-140.5 -92l-38 58z" />
<glyph unicode="&#xba;" horiz-adv-x="641" d="M508 1449q103 0 161.5 -62.5t58.5 -176.5q0 -112 -39 -209t-111.5 -153.5t-171.5 -56.5q-112 0 -166 66t-54 181q0 110 41 205.5t114 150.5t167 55zM498 1377q-69 0 -122 -45.5t-82 -122t-29 -163.5q0 -183 152 -183q72 0 123.5 46t80 125t28.5 172q0 82 -38.5 126.5 t-112.5 44.5z" />
<glyph unicode="&#xbb;" horiz-adv-x="842" d="M442 121l-57 48l308 329l-205 377l62 38l249 -409l-2 -27zM88 121l-56 48l307 329l-205 377l63 38l249 -409l-2 -27z" />
<glyph unicode="&#xbc;" horiz-adv-x="1451" d="M1293 226h-129l-48 -225h-80l48 225h-383l21 74l495 566h85l-123 -570h131zM1099 296q60 288 77.5 358.5t28.5 103.5q-10 -16 -60 -77.5t-331 -384.5h285zM1296 1433l-1065 -1433h-105l1065 1433h105zM499 1433h78l-182 -859h-82l115 558q5 20 11.5 49t14 59t15 58 t14.5 49q-33 -31 -58.5 -51t-140.5 -92l-38 58z" />
<glyph unicode="&#xbd;" horiz-adv-x="1428" d="M1253 1h-512l16 79l291 253q134 115 179 186t45 151q0 57 -38 94.5t-104 37.5q-93 0 -190 -75l-40 61q106 88 234 88q72 0 123 -26.5t77 -70.5t26 -98q0 -103 -58 -194t-179 -191l-261 -218h408zM423 1433h78l-182 -859h-82l115 558q5 20 11.5 49t14 59t15 58t14.5 49 q-33 -31 -58.5 -51t-140.5 -92l-38 58zM1222 1433l-1065 -1433h-105l1065 1433h105z" />
<glyph unicode="&#xbe;" horiz-adv-x="1428" d="M1353 226h-129l-48 -225h-80l48 225h-383l21 74l495 566h85l-123 -570h131zM1159 296q60 288 77.5 358.5t28.5 103.5q-10 -16 -60 -77.5t-331 -384.5h285zM654 1250q0 -83 -47.5 -144.5t-151.5 -86.5v-4q65 -15 103.5 -66t38.5 -122q0 -75 -38 -138t-107 -97t-158 -34 q-58 0 -121 15t-103 39v89q45 -28 105.5 -47.5t122.5 -19.5q97 0 156 51.5t59 139.5q0 159 -192 159h-83l16 77h84q100 0 165.5 48.5t65.5 127.5q0 66 -37 100t-103 34q-98 0 -196 -67l-39 63q107 84 246 84q98 0 156 -55t58 -146zM1378 1433l-1065 -1433h-105l1065 1433 h105z" />
<glyph unicode="&#xbf;" horiz-adv-x="783" d="M628 703l-6 -29q-27 -124 -77 -195.5t-158 -151.5q-116 -82 -171.5 -142.5t-84.5 -125t-29 -137.5q0 -104 64 -165.5t181 -61.5q138 0 302 98l37 -84q-83 -48 -167 -76t-184 -28q-156 0 -245.5 83t-89.5 224q0 130 68.5 235.5t222.5 216.5q83 59 130.5 106t71.5 93.5 t45 139.5h90zM699 1000q0 -55 -25 -87t-68 -32q-64 0 -64 71q0 54 24.5 87t65.5 33q67 0 67 -72z" />
<glyph unicode="&#xc0;" horiz-adv-x="1037" d="M789 510h-502l-281 -510h-115l806 1439h65l197 -1439h-102zM777 600l-38 285q-30 237 -38 394q-30 -62 -63.5 -127.5t-300.5 -551.5h440zM799 1547h-65q-49 51 -111.5 141.5t-97.5 159.5v21h113q45 -127 161 -297v-25z" />
<glyph unicode="&#xc1;" horiz-adv-x="1037" d="M789 510h-502l-281 -510h-115l806 1439h65l197 -1439h-102zM777 600l-38 285q-30 237 -38 394q-30 -62 -63.5 -127.5t-300.5 -551.5h440zM654 1568q65 50 148 139t127 162h134v-23q-50 -65 -154.5 -155.5t-188.5 -143.5h-66v21z" />
<glyph unicode="&#xc2;" horiz-adv-x="1037" d="M789 510h-502l-281 -510h-115l806 1439h65l197 -1439h-102zM777 600l-38 285q-30 237 -38 394q-30 -62 -63.5 -127.5t-300.5 -551.5h440zM987 1547h-48q-69 59 -158 203q-54 -56 -122.5 -112.5t-122.5 -90.5h-53v29q67 54 154.5 145t124.5 148h63q23 -63 71.5 -150 t90.5 -143v-29z" />
<glyph unicode="&#xc3;" horiz-adv-x="1037" d="M789 510h-502l-281 -510h-115l806 1439h65l197 -1439h-102zM777 600l-38 285q-30 237 -38 394q-30 -62 -63.5 -127.5t-300.5 -551.5h440zM892 1555q-39 0 -75.5 18.5t-74.5 44.5q-33 22 -63 40t-67 18q-44 0 -72.5 -28t-49.5 -99h-73q19 106 70 163.5t131 57.5 q40 0 72 -14t115 -71q51 -35 92 -35q42 0 70 30t46 98h74q-25 -115 -72.5 -169t-122.5 -54z" />
<glyph unicode="&#xc4;" horiz-adv-x="1037" d="M789 510h-502l-281 -510h-115l806 1439h65l197 -1439h-102zM777 600l-38 285q-30 237 -38 394q-30 -62 -63.5 -127.5t-300.5 -551.5h440zM861 1670q0 48 20 76.5t56 28.5q53 0 53 -63q0 -47 -21 -75.5t-54 -28.5q-54 0 -54 62zM524 1670q0 48 20 76.5t56 28.5 q53 0 53 -63q0 -47 -21 -75.5t-54 -28.5q-54 0 -54 62z" />
<glyph unicode="&#xc5;" horiz-adv-x="1037" d="M789 510h-502l-281 -510h-115l806 1439h65l197 -1439h-102zM777 600l-38 285q-30 237 -38 394q-30 -62 -63.5 -127.5t-300.5 -551.5h440zM926 1568q0 -90 -56.5 -145.5t-142.5 -55.5q-91 0 -145 51t-54 142q0 86 58 141t147 55q86 0 139.5 -49t53.5 -139zM849 1566 q0 56 -32.5 88.5t-85.5 32.5q-59 0 -92 -35.5t-33 -91.5t32.5 -88t88.5 -32q55 0 88.5 35t33.5 91z" />
<glyph unicode="&#xc6;" horiz-adv-x="1607" d="M1375 0h-713l108 512h-435l-321 -512h-129l927 1433h866l-20 -92h-612l-115 -542h578l-19 -92h-577l-132 -615h614zM400 614h393l153 727h-87z" />
<glyph unicode="&#xc7;" horiz-adv-x="1145" d="M942 1361q-193 0 -344.5 -102.5t-240 -298.5t-88.5 -432q0 -220 108 -338.5t311 -118.5q137 0 298 50v-93q-153 -48 -310 -48q-247 0 -378 142.5t-131 401.5q0 261 102 478.5t278.5 334t394.5 116.5q173 0 301 -66l-44 -89q-54 30 -122.5 46.5t-134.5 16.5zM737 -283 q0 -92 -74 -145.5t-213 -53.5q-45 0 -77 7v77q30 -6 71 -6q194 0 194 113q0 95 -148 105l108 186h78l-76 -134q137 -30 137 -149z" />
<glyph unicode="&#xc8;" horiz-adv-x="1045" d="M812 0h-712l304 1433h712l-20 -92h-612l-115 -542h579l-21 -92h-576l-132 -615h614zM873 1547h-65q-49 51 -111.5 141.5t-97.5 159.5v21h113q45 -127 161 -297v-25z" />
<glyph unicode="&#xc9;" horiz-adv-x="1045" d="M812 0h-712l304 1433h712l-20 -92h-612l-115 -542h579l-21 -92h-576l-132 -615h614zM641 1568q65 50 148 139t127 162h134v-23q-50 -65 -154.5 -155.5t-188.5 -143.5h-66v21z" />
<glyph unicode="&#xca;" horiz-adv-x="1045" d="M812 0h-712l304 1433h712l-20 -92h-612l-115 -542h579l-21 -92h-576l-132 -615h614zM1015 1547h-48q-69 59 -158 203q-54 -56 -122.5 -112.5t-122.5 -90.5h-53v29q67 54 154.5 145t124.5 148h63q23 -63 71.5 -150t90.5 -143v-29z" />
<glyph unicode="&#xcb;" horiz-adv-x="1045" d="M812 0h-712l304 1433h712l-20 -92h-612l-115 -542h579l-21 -92h-576l-132 -615h614zM884 1670q0 48 20 76.5t56 28.5q53 0 53 -63q0 -47 -21 -75.5t-54 -28.5q-54 0 -54 62zM547 1670q0 48 20 76.5t56 28.5q53 0 53 -63q0 -47 -21 -75.5t-54 -28.5q-54 0 -54 62z" />
<glyph unicode="&#xcc;" horiz-adv-x="493" d="M100 0l304 1433h96l-303 -1433h-97zM515 1547h-65q-49 51 -111.5 141.5t-97.5 159.5v21h113q45 -127 161 -297v-25z" />
<glyph unicode="&#xcd;" horiz-adv-x="493" d="M100 0l304 1433h96l-303 -1433h-97zM410 1568q65 50 148 139t127 162h134v-23q-50 -65 -154.5 -155.5t-188.5 -143.5h-66v21z" />
<glyph unicode="&#xce;" horiz-adv-x="493" d="M100 0l304 1433h96l-303 -1433h-97zM723 1547h-48q-69 59 -158 203q-54 -56 -122.5 -112.5t-122.5 -90.5h-53v29q67 54 154.5 145t124.5 148h63q23 -63 71.5 -150t90.5 -143v-29z" />
<glyph unicode="&#xcf;" horiz-adv-x="493" d="M100 0l304 1433h96l-303 -1433h-97zM592 1670q0 48 20 76.5t56 28.5q53 0 53 -63q0 -47 -21 -75.5t-54 -28.5q-54 0 -54 62zM255 1670q0 48 20 76.5t56 28.5q53 0 53 -63q0 -47 -21 -75.5t-54 -28.5q-54 0 -54 62z" />
<glyph unicode="&#xd0;" horiz-adv-x="1324" d="M1262 861q0 -248 -107 -452t-294.5 -306.5t-437.5 -102.5h-323l141 662h-153l21 95h152l143 676h299q276 0 417.5 -144.5t141.5 -427.5zM421 88q222 0 387 92.5t255.5 270t90.5 404.5q0 488 -466 488h-202l-126 -586h370l-20 -95h-371l-122 -574h204z" />
<glyph unicode="&#xd1;" horiz-adv-x="1344" d="M1048 0h-85l-505 1258h-8q-23 -146 -47.5 -267.5t-209.5 -990.5h-93l304 1433h78l512 -1268h8q22 172 72 407l184 861h92zM1040 1555q-39 0 -75.5 18.5t-74.5 44.5q-33 22 -63 40t-67 18q-44 0 -72.5 -28t-49.5 -99h-73q19 106 70 163.5t131 57.5q40 0 72 -14t115 -71 q51 -35 92 -35q42 0 70 30t46 98h74q-25 -115 -72.5 -169t-122.5 -54z" />
<glyph unicode="&#xd2;" horiz-adv-x="1434" d="M1375 893q0 -250 -92 -472t-247 -331.5t-358 -109.5q-245 0 -377 146t-132 422q0 257 91 468t249.5 324t365.5 113q242 0 371 -145.5t129 -414.5zM861 1361q-170 0 -302 -99t-210.5 -292t-78.5 -408q0 -241 107.5 -366t313.5 -125q166 0 294 96.5t205.5 294t77.5 421.5 q0 235 -102.5 356.5t-304.5 121.5zM970 1547h-65q-49 51 -111.5 141.5t-97.5 159.5v21h113q45 -127 161 -297v-25z" />
<glyph unicode="&#xd3;" horiz-adv-x="1434" d="M1375 893q0 -250 -92 -472t-247 -331.5t-358 -109.5q-245 0 -377 146t-132 422q0 257 91 468t249.5 324t365.5 113q242 0 371 -145.5t129 -414.5zM861 1361q-170 0 -302 -99t-210.5 -292t-78.5 -408q0 -241 107.5 -366t313.5 -125q166 0 294 96.5t205.5 294t77.5 421.5 q0 235 -102.5 356.5t-304.5 121.5zM827 1568q65 50 148 139t127 162h134v-23q-50 -65 -154.5 -155.5t-188.5 -143.5h-66v21z" />
<glyph unicode="&#xd4;" horiz-adv-x="1434" d="M1375 893q0 -250 -92 -472t-247 -331.5t-358 -109.5q-245 0 -377 146t-132 422q0 257 91 468t249.5 324t365.5 113q242 0 371 -145.5t129 -414.5zM861 1361q-170 0 -302 -99t-210.5 -292t-78.5 -408q0 -241 107.5 -366t313.5 -125q166 0 294 96.5t205.5 294t77.5 421.5 q0 235 -102.5 356.5t-304.5 121.5zM1148 1547h-48q-69 59 -158 203q-54 -56 -122.5 -112.5t-122.5 -90.5h-53v29q67 54 154.5 145t124.5 148h63q23 -63 71.5 -150t90.5 -143v-29z" />
<glyph unicode="&#xd5;" horiz-adv-x="1434" d="M1375 893q0 -250 -92 -472t-247 -331.5t-358 -109.5q-245 0 -377 146t-132 422q0 257 91 468t249.5 324t365.5 113q242 0 371 -145.5t129 -414.5zM861 1361q-170 0 -302 -99t-210.5 -292t-78.5 -408q0 -241 107.5 -366t313.5 -125q166 0 294 96.5t205.5 294t77.5 421.5 q0 235 -102.5 356.5t-304.5 121.5zM1055 1555q-39 0 -75.5 18.5t-74.5 44.5q-33 22 -63 40t-67 18q-44 0 -72.5 -28t-49.5 -99h-73q19 106 70 163.5t131 57.5q40 0 72 -14t115 -71q51 -35 92 -35q42 0 70 30t46 98h74q-25 -115 -72.5 -169t-122.5 -54z" />
<glyph unicode="&#xd6;" horiz-adv-x="1434" d="M1375 893q0 -250 -92 -472t-247 -331.5t-358 -109.5q-245 0 -377 146t-132 422q0 257 91 468t249.5 324t365.5 113q242 0 371 -145.5t129 -414.5zM861 1361q-170 0 -302 -99t-210.5 -292t-78.5 -408q0 -241 107.5 -366t313.5 -125q166 0 294 96.5t205.5 294t77.5 421.5 q0 235 -102.5 356.5t-304.5 121.5zM1010 1670q0 48 20 76.5t56 28.5q53 0 53 -63q0 -47 -21 -75.5t-54 -28.5q-54 0 -54 62zM673 1670q0 48 20 76.5t56 28.5q53 0 53 -63q0 -47 -21 -75.5t-54 -28.5q-54 0 -54 62z" />
<glyph unicode="&#xd7;" d="M540 709l-323 325l68 68l324 -323l326 323l67 -66l-326 -327l326 -326l-67 -65l-326 322l-324 -321l-66 66z" />
<glyph unicode="&#xd8;" horiz-adv-x="1434" d="M1375 893q0 -183 -51 -358t-141.5 -298.5t-218.5 -190t-286 -66.5q-211 0 -341 110l-136 -166l-65 62l143 169q-110 146 -110 393q0 258 92 470t251 323.5t363 111.5q215 0 345 -118l130 164l69 -52l-142 -179q44 -50 71 -157.5t27 -217.5zM861 1361q-131 0 -239 -58 t-184.5 -166.5t-122 -262.5t-45.5 -312q0 -103 21.5 -187.5t55.5 -135.5l809 1011q-104 111 -295 111zM1268 883q0 83 -17 168.5t-43 126.5l-804 -1009q105 -98 287 -98q167 0 295 98t205 290.5t77 423.5z" />
<glyph unicode="&#xd9;" horiz-adv-x="1342" d="M1367 1433l-203 -958q-57 -264 -193 -379.5t-367 -115.5q-432 0 -432 393q0 82 27 197l182 863h101l-189 -881q-20 -87 -20 -181q0 -302 336 -302q191 0 301 94.5t155 311.5l203 958h99zM927 1547h-65q-49 51 -111.5 141.5t-97.5 159.5v21h113q45 -127 161 -297v-25z" />
<glyph unicode="&#xda;" horiz-adv-x="1342" d="M1367 1433l-203 -958q-57 -264 -193 -379.5t-367 -115.5q-432 0 -432 393q0 82 27 197l182 863h101l-189 -881q-20 -87 -20 -181q0 -302 336 -302q191 0 301 94.5t155 311.5l203 958h99zM821 1568q65 50 148 139t127 162h134v-23q-50 -65 -154.5 -155.5t-188.5 -143.5 h-66v21z" />
<glyph unicode="&#xdb;" horiz-adv-x="1342" d="M1367 1433l-203 -958q-57 -264 -193 -379.5t-367 -115.5q-432 0 -432 393q0 82 27 197l182 863h101l-189 -881q-20 -87 -20 -181q0 -302 336 -302q191 0 301 94.5t155 311.5l203 958h99zM1125 1547h-48q-69 59 -158 203q-54 -56 -122.5 -112.5t-122.5 -90.5h-53v29 q67 54 154.5 145t124.5 148h63q23 -63 71.5 -150t90.5 -143v-29z" />
<glyph unicode="&#xdc;" horiz-adv-x="1342" d="M1367 1433l-203 -958q-57 -264 -193 -379.5t-367 -115.5q-432 0 -432 393q0 82 27 197l182 863h101l-189 -881q-20 -87 -20 -181q0 -302 336 -302q191 0 301 94.5t155 311.5l203 958h99zM1001 1670q0 48 20 76.5t56 28.5q53 0 53 -63q0 -47 -21 -75.5t-54 -28.5 q-54 0 -54 62zM664 1670q0 48 20 76.5t56 28.5q53 0 53 -63q0 -47 -21 -75.5t-54 -28.5q-54 0 -54 62z" />
<glyph unicode="&#xdd;" horiz-adv-x="945" d="M484 632l533 801h115l-618 -914l-106 -519h-103l116 534l-232 899h98zM551 1568q65 50 148 139t127 162h134v-23q-50 -65 -154.5 -155.5t-188.5 -143.5h-66v21z" />
<glyph unicode="&#xde;" horiz-adv-x="1122" d="M1065 819q0 -242 -150 -366t-448 -124h-197l-69 -329h-101l304 1433h100l-56 -261h209q196 0 302 -90.5t106 -262.5zM287 419h186q251 0 368.5 96.5t117.5 296.5q0 270 -323 270h-207z" />
<glyph unicode="&#xdf;" horiz-adv-x="1072" d="M-159 -482q-71 0 -116 22v89q52 -24 112 -24q78 0 121 49.5t65 150.5l298 1381q79 350 397 350q135 0 211 -60.5t76 -171.5q0 -73 -43.5 -137.5t-162.5 -145.5q-105 -74 -139 -121.5t-34 -104.5q0 -50 33.5 -87t91.5 -74q94 -62 135 -131t41 -162q0 -167 -104.5 -264 t-280.5 -97q-140 0 -229 64v107q44 -35 110 -57.5t127 -22.5q129 0 204 69.5t75 190.5q0 74 -31 127t-107 106q-80 56 -116.5 107.5t-36.5 119.5q0 56 20.5 101t59.5 86.5t135 111.5q99 68 128.5 113.5t29.5 98.5q0 69 -53.5 108t-147.5 39q-126 0 -200.5 -74.5 t-105.5 -223.5l-285 -1350q-33 -149 -102 -216t-176 -67z" />
<glyph unicode="&#xe0;" horiz-adv-x="1110" d="M642 1082q227 0 273 -215h6l58 198h78l-224 -1065h-80l44 269h-6q-82 -140 -183 -214.5t-233 -74.5q-275 0 -275 367q0 193 73.5 368.5t196.5 271t272 95.5zM398 69q87 0 174 60.5t156 162.5t105 225.5t36 208.5q0 78 -25.5 139t-75.5 97t-124 36q-122 0 -220 -80.5 t-160.5 -241t-62.5 -318.5q0 -149 49 -219t148 -70zM793 1216h-65q-49 51 -111.5 141.5t-97.5 159.5v21h113q45 -127 161 -297v-25z" />
<glyph unicode="&#xe1;" horiz-adv-x="1110" d="M642 1082q227 0 273 -215h6l58 198h78l-224 -1065h-80l44 269h-6q-82 -140 -183 -214.5t-233 -74.5q-275 0 -275 367q0 193 73.5 368.5t196.5 271t272 95.5zM398 69q87 0 174 60.5t156 162.5t105 225.5t36 208.5q0 78 -25.5 139t-75.5 97t-124 36q-122 0 -220 -80.5 t-160.5 -241t-62.5 -318.5q0 -149 49 -219t148 -70zM574 1237q65 50 148 139t127 162h134v-23q-50 -65 -154.5 -155.5t-188.5 -143.5h-66v21z" />
<glyph unicode="&#xe2;" horiz-adv-x="1110" d="M642 1082q227 0 273 -215h6l58 198h78l-224 -1065h-80l44 269h-6q-82 -140 -183 -214.5t-233 -74.5q-275 0 -275 367q0 193 73.5 368.5t196.5 271t272 95.5zM398 69q87 0 174 60.5t156 162.5t105 225.5t36 208.5q0 78 -25.5 139t-75.5 97t-124 36q-122 0 -220 -80.5 t-160.5 -241t-62.5 -318.5q0 -149 49 -219t148 -70zM936 1218h-48q-69 59 -158 203q-54 -56 -122.5 -112.5t-122.5 -90.5h-53v29q67 54 154.5 145t124.5 148h63q23 -63 71.5 -150t90.5 -143v-29z" />
<glyph unicode="&#xe3;" horiz-adv-x="1110" d="M642 1082q227 0 273 -215h6l58 198h78l-224 -1065h-80l44 269h-6q-82 -140 -183 -214.5t-233 -74.5q-275 0 -275 367q0 193 73.5 368.5t196.5 271t272 95.5zM398 69q87 0 174 60.5t156 162.5t105 225.5t36 208.5q0 78 -25.5 139t-75.5 97t-124 36q-122 0 -220 -80.5 t-160.5 -241t-62.5 -318.5q0 -149 49 -219t148 -70zM840 1224q-39 0 -75.5 18.5t-74.5 44.5q-33 22 -63 40t-67 18q-44 0 -72.5 -28t-49.5 -99h-73q19 106 70 163.5t131 57.5q40 0 72 -14t115 -71q51 -35 92 -35q42 0 70 30t46 98h74q-25 -115 -72.5 -169t-122.5 -54z" />
<glyph unicode="&#xe4;" horiz-adv-x="1110" d="M642 1082q227 0 273 -215h6l58 198h78l-224 -1065h-80l44 269h-6q-82 -140 -183 -214.5t-233 -74.5q-275 0 -275 367q0 193 73.5 368.5t196.5 271t272 95.5zM398 69q87 0 174 60.5t156 162.5t105 225.5t36 208.5q0 78 -25.5 139t-75.5 97t-124 36q-122 0 -220 -80.5 t-160.5 -241t-62.5 -318.5q0 -149 49 -219t148 -70zM818 1339q0 48 20 76.5t56 28.5q53 0 53 -63q0 -47 -21 -75.5t-54 -28.5q-54 0 -54 62zM481 1339q0 48 20 76.5t56 28.5q53 0 53 -63q0 -47 -21 -75.5t-54 -28.5q-54 0 -54 62z" />
<glyph unicode="&#xe5;" horiz-adv-x="1110" d="M642 1082q227 0 273 -215h6l58 198h78l-224 -1065h-80l44 269h-6q-82 -140 -183 -214.5t-233 -74.5q-275 0 -275 367q0 193 73.5 368.5t196.5 271t272 95.5zM398 69q87 0 174 60.5t156 162.5t105 225.5t36 208.5q0 78 -25.5 139t-75.5 97t-124 36q-122 0 -220 -80.5 t-160.5 -241t-62.5 -318.5q0 -149 49 -219t148 -70zM909 1419q0 -90 -56.5 -145.5t-142.5 -55.5q-91 0 -145 51t-54 142q0 86 58 141t147 55q86 0 139.5 -49t53.5 -139zM832 1417q0 56 -32.5 88.5t-85.5 32.5q-59 0 -92 -35.5t-33 -91.5t32.5 -88t88.5 -32q55 0 88.5 35 t33.5 91z" />
<glyph unicode="&#xe6;" horiz-adv-x="1569" d="M1132 -20q-121 0 -207 59t-115 162l-38 -201h-75l40 249h-9q-92 -139 -185 -204t-204 -65q-118 0 -178.5 92.5t-60.5 264.5q0 202 69 377t188.5 271.5t268.5 96.5q104 0 163 -55.5t72 -153.5h10l58 188h65l-35 -182q137 203 343 203q110 0 172 -60.5t62 -168.5 q0 -176 -155.5 -266.5t-461.5 -90.5h-38q-8 -50 -8 -94q0 -158 68 -245.5t213 -87.5q68 0 131 20.5t128 50.5v-92q-78 -36 -144 -52t-137 -16zM362 69q65 0 135 41t131.5 115t104 167t62 195t19.5 162q0 115 -48 182t-138 67q-120 0 -218 -84.5t-153.5 -235.5t-55.5 -333 q0 -147 41.5 -211.5t119.5 -64.5zM1291 998q-117 0 -227.5 -113.5t-168.5 -302.5h47q258 0 375.5 65.5t117.5 199.5q0 69 -38 110t-106 41z" />
<glyph unicode="&#xe7;" horiz-adv-x="869" d="M467 -20q-170 0 -268.5 108.5t-98.5 300.5q0 189 72 354t194.5 252t284.5 87q131 0 236 -42l-28 -88q-104 46 -213 46q-127 0 -228 -75.5t-159 -217.5t-58 -314q0 -155 72 -238.5t204 -83.5q70 0 129 12.5t129 44.5v-90q-114 -56 -268 -56zM562 -283q0 -92 -74 -145.5 t-213 -53.5q-45 0 -77 7v77q30 -6 71 -6q194 0 194 113q0 95 -148 105l108 186h78l-76 -134q137 -30 137 -149z" />
<glyph unicode="&#xe8;" horiz-adv-x="909" d="M460 -20q-170 0 -265 107.5t-95 299.5q0 177 69.5 340t191.5 259t269 96q112 0 178.5 -60t66.5 -163q0 -177 -160 -270t-476 -93h-32q-6 -43 -6 -96q0 -162 72.5 -246.5t208.5 -84.5q130 0 271 71v-92q-138 -68 -293 -68zM618 998q-128 0 -238 -113.5t-160 -302.5h49 q506 0 506 265q0 65 -42.5 108t-114.5 43zM736 1216h-65q-49 51 -111.5 141.5t-97.5 159.5v21h113q45 -127 161 -297v-25z" />
<glyph unicode="&#xe9;" horiz-adv-x="909" d="M460 -20q-170 0 -265 107.5t-95 299.5q0 177 69.5 340t191.5 259t269 96q112 0 178.5 -60t66.5 -163q0 -177 -160 -270t-476 -93h-32q-6 -43 -6 -96q0 -162 72.5 -246.5t208.5 -84.5q130 0 271 71v-92q-138 -68 -293 -68zM618 998q-128 0 -238 -113.5t-160 -302.5h49 q506 0 506 265q0 65 -42.5 108t-114.5 43zM521 1237q65 50 148 139t127 162h134v-23q-50 -65 -154.5 -155.5t-188.5 -143.5h-66v21z" />
<glyph unicode="&#xea;" horiz-adv-x="909" d="M460 -20q-170 0 -265 107.5t-95 299.5q0 177 69.5 340t191.5 259t269 96q112 0 178.5 -60t66.5 -163q0 -177 -160 -270t-476 -93h-32q-6 -43 -6 -96q0 -162 72.5 -246.5t208.5 -84.5q130 0 271 71v-92q-138 -68 -293 -68zM618 998q-128 0 -238 -113.5t-160 -302.5h49 q506 0 506 265q0 65 -42.5 108t-114.5 43zM886 1216h-48q-69 59 -158 203q-54 -56 -122.5 -112.5t-122.5 -90.5h-53v29q67 54 154.5 145t124.5 148h63q23 -63 71.5 -150t90.5 -143v-29z" />
<glyph unicode="&#xeb;" horiz-adv-x="909" d="M460 -20q-170 0 -265 107.5t-95 299.5q0 177 69.5 340t191.5 259t269 96q112 0 178.5 -60t66.5 -163q0 -177 -160 -270t-476 -93h-32q-6 -43 -6 -96q0 -162 72.5 -246.5t208.5 -84.5q130 0 271 71v-92q-138 -68 -293 -68zM618 998q-128 0 -238 -113.5t-160 -302.5h49 q506 0 506 265q0 65 -42.5 108t-114.5 43zM764 1339q0 48 20 76.5t56 28.5q53 0 53 -63q0 -47 -21 -75.5t-54 -28.5q-54 0 -54 62zM427 1339q0 48 20 76.5t56 28.5q53 0 53 -63q0 -47 -21 -75.5t-54 -28.5q-54 0 -54 62z" />
<glyph unicode="&#xec;" horiz-adv-x="465" d="M171 0h-97l227 1065h94zM445 1216h-65q-49 51 -111.5 141.5t-97.5 159.5v21h113q45 -127 161 -297v-25z" />
<glyph unicode="&#xed;" horiz-adv-x="465" d="M171 0h-97l227 1065h94zM278 1237q65 50 148 139t127 162h134v-23q-50 -65 -154.5 -155.5t-188.5 -143.5h-66v21z" />
<glyph unicode="&#xee;" horiz-adv-x="465" d="M171 0h-97l227 1065h94zM629 1216h-48q-69 59 -158 203q-54 -56 -122.5 -112.5t-122.5 -90.5h-53v29q67 54 154.5 145t124.5 148h63q23 -63 71.5 -150t90.5 -143v-29z" />
<glyph unicode="&#xef;" horiz-adv-x="465" d="M171 0h-97l227 1065h94zM504 1339q0 48 20 76.5t56 28.5q53 0 53 -63q0 -47 -21 -75.5t-54 -28.5q-54 0 -54 62zM167 1339q0 48 20 76.5t56 28.5q53 0 53 -63q0 -47 -21 -75.5t-54 -28.5q-54 0 -54 62z" />
<glyph unicode="&#xf0;" horiz-adv-x="1101" d="M699 1337q-53 59 -155 136l58 67q31 -26 79 -65t98 -92l261 147l38 -73l-251 -138q85 -114 129 -270.5t44 -328.5q0 -348 -139 -544t-392 -196q-173 0 -271 104.5t-98 288.5q0 167 61.5 296t175 199.5t257.5 70.5q105 0 184.5 -48.5t118.5 -139.5h5q0 136 -42.5 283 t-112.5 238l-289 -160l-39 72zM479 69q116 0 204.5 59.5t141 182.5t52.5 265q0 76 -34.5 139.5t-98 99.5t-152.5 36q-122 0 -209.5 -60.5t-134.5 -166.5t-47 -243q0 -150 72 -231t206 -81z" />
<glyph unicode="&#xf1;" horiz-adv-x="1120" d="M749 0l146 678q20 90 20 153q0 78 -42.5 122.5t-131.5 44.5q-110 0 -206.5 -66t-162.5 -184t-102 -281l-99 -467h-97l227 1065h80l-36 -216h6q161 233 408 233q127 0 190.5 -63t63.5 -180q0 -69 -23 -178l-145 -661h-96zM856 1224q-39 0 -75.5 18.5t-74.5 44.5 q-33 22 -63 40t-67 18q-44 0 -72.5 -28t-49.5 -99h-73q19 106 70 163.5t131 57.5q40 0 72 -14t115 -71q51 -35 92 -35q42 0 70 30t46 98h74q-25 -115 -72.5 -169t-122.5 -54z" />
<glyph unicode="&#xf2;" horiz-adv-x="1101" d="M636 1086q176 0 272.5 -106.5t96.5 -293.5q0 -193 -70 -361t-191.5 -256.5t-279.5 -88.5q-181 0 -274.5 107.5t-93.5 307.5q0 187 71.5 350.5t193 252t275.5 88.5zM628 1002q-121 0 -218 -77t-155 -220.5t-58 -304.5q0 -335 276 -335q125 0 221.5 76t154 223.5 t57.5 323.5q0 151 -72 232.5t-206 81.5zM729 1216h-65q-49 51 -111.5 141.5t-97.5 159.5v21h113q45 -127 161 -297v-25z" />
<glyph unicode="&#xf3;" horiz-adv-x="1101" d="M636 1086q176 0 272.5 -106.5t96.5 -293.5q0 -193 -70 -361t-191.5 -256.5t-279.5 -88.5q-181 0 -274.5 107.5t-93.5 307.5q0 187 71.5 350.5t193 252t275.5 88.5zM628 1002q-121 0 -218 -77t-155 -220.5t-58 -304.5q0 -335 276 -335q125 0 221.5 76t154 223.5 t57.5 323.5q0 151 -72 232.5t-206 81.5zM561 1237q65 50 148 139t127 162h134v-23q-50 -65 -154.5 -155.5t-188.5 -143.5h-66v21z" />
<glyph unicode="&#xf4;" horiz-adv-x="1101" d="M636 1086q176 0 272.5 -106.5t96.5 -293.5q0 -193 -70 -361t-191.5 -256.5t-279.5 -88.5q-181 0 -274.5 107.5t-93.5 307.5q0 187 71.5 350.5t193 252t275.5 88.5zM628 1002q-121 0 -218 -77t-155 -220.5t-58 -304.5q0 -335 276 -335q125 0 221.5 76t154 223.5 t57.5 323.5q0 151 -72 232.5t-206 81.5zM922 1216h-48q-69 59 -158 203q-54 -56 -122.5 -112.5t-122.5 -90.5h-53v29q67 54 154.5 145t124.5 148h63q23 -63 71.5 -150t90.5 -143v-29z" />
<glyph unicode="&#xf5;" horiz-adv-x="1101" d="M636 1086q176 0 272.5 -106.5t96.5 -293.5q0 -193 -70 -361t-191.5 -256.5t-279.5 -88.5q-181 0 -274.5 107.5t-93.5 307.5q0 187 71.5 350.5t193 252t275.5 88.5zM628 1002q-121 0 -218 -77t-155 -220.5t-58 -304.5q0 -335 276 -335q125 0 221.5 76t154 223.5 t57.5 323.5q0 151 -72 232.5t-206 81.5zM822 1224q-39 0 -75.5 18.5t-74.5 44.5q-33 22 -63 40t-67 18q-44 0 -72.5 -28t-49.5 -99h-73q19 106 70 163.5t131 57.5q40 0 72 -14t115 -71q51 -35 92 -35q42 0 70 30t46 98h74q-25 -115 -72.5 -169t-122.5 -54z" />
<glyph unicode="&#xf6;" horiz-adv-x="1101" d="M636 1086q176 0 272.5 -106.5t96.5 -293.5q0 -193 -70 -361t-191.5 -256.5t-279.5 -88.5q-181 0 -274.5 107.5t-93.5 307.5q0 187 71.5 350.5t193 252t275.5 88.5zM628 1002q-121 0 -218 -77t-155 -220.5t-58 -304.5q0 -335 276 -335q125 0 221.5 76t154 223.5 t57.5 323.5q0 151 -72 232.5t-206 81.5zM795 1339q0 48 20 76.5t56 28.5q53 0 53 -63q0 -47 -21 -75.5t-54 -28.5q-54 0 -54 62zM458 1339q0 48 20 76.5t56 28.5q53 0 53 -63q0 -47 -21 -75.5t-54 -28.5q-54 0 -54 62z" />
<glyph unicode="&#xf7;" d="M165 659v98h885v-98h-885zM512 366q0 103 94 103q47 0 72 -26.5t25 -76.5q0 -56 -28.5 -80.5t-68.5 -24.5q-94 0 -94 105zM512 1050q0 104 94 104q45 0 71 -26.5t26 -77.5q0 -56 -28.5 -80t-68.5 -24q-94 0 -94 104z" />
<glyph unicode="&#xf8;" horiz-adv-x="1101" d="M161 124q-65 104 -65 271q0 187 71.5 350.5t193 252t275.5 88.5q147 0 245 -81l107 131l64 -52l-115 -140q68 -103 68 -258q0 -193 -70 -361t-191.5 -256.5t-279.5 -88.5q-160 0 -249 82l-108 -133l-63 53zM906 688q0 99 -35 175l-596 -727q66 -71 198 -71 q125 0 221.5 76t154 223.5t57.5 323.5zM628 1002q-121 0 -218 -77t-155 -220.5t-58 -304.5q0 -123 31 -193l593 724q-72 71 -193 71z" />
<glyph unicode="&#xf9;" horiz-adv-x="1120" d="M373 1065l-149 -684q-21 -104 -21 -155q0 -72 46.5 -114.5t135.5 -42.5q108 0 203.5 64t160.5 183t98 274l103 475h96l-227 -1065h-78l27 201h-6q-163 -217 -394 -217q-129 0 -195 61t-66 177q0 59 21 167l147 676h98zM759 1216h-65q-49 51 -111.5 141.5t-97.5 159.5v21 h113q45 -127 161 -297v-25z" />
<glyph unicode="&#xfa;" horiz-adv-x="1120" d="M373 1065l-149 -684q-21 -104 -21 -155q0 -72 46.5 -114.5t135.5 -42.5q108 0 203.5 64t160.5 183t98 274l103 475h96l-227 -1065h-78l27 201h-6q-163 -217 -394 -217q-129 0 -195 61t-66 177q0 59 21 167l147 676h98zM614 1237q65 50 148 139t127 162h134v-23 q-50 -65 -154.5 -155.5t-188.5 -143.5h-66v21z" />
<glyph unicode="&#xfb;" horiz-adv-x="1120" d="M373 1065l-149 -684q-21 -104 -21 -155q0 -72 46.5 -114.5t135.5 -42.5q108 0 203.5 64t160.5 183t98 274l103 475h96l-227 -1065h-78l27 201h-6q-163 -217 -394 -217q-129 0 -195 61t-66 177q0 59 21 167l147 676h98zM938 1216h-48q-69 59 -158 203 q-54 -56 -122.5 -112.5t-122.5 -90.5h-53v29q67 54 154.5 145t124.5 148h63q23 -63 71.5 -150t90.5 -143v-29z" />
<glyph unicode="&#xfc;" horiz-adv-x="1120" d="M373 1065l-149 -684q-21 -104 -21 -155q0 -72 46.5 -114.5t135.5 -42.5q108 0 203.5 64t160.5 183t98 274l103 475h96l-227 -1065h-78l27 201h-6q-163 -217 -394 -217q-129 0 -195 61t-66 177q0 59 21 167l147 676h98zM810 1339q0 48 20 76.5t56 28.5q53 0 53 -63 q0 -47 -21 -75.5t-54 -28.5q-54 0 -54 62zM473 1339q0 48 20 76.5t56 28.5q53 0 53 -63q0 -47 -21 -75.5t-54 -28.5q-54 0 -54 62z" />
<glyph unicode="&#xfd;" horiz-adv-x="901" d="M121 1065h98l80 -537q50 -344 54 -440h11q42 103 182 360l341 617h101l-699 -1264q-70 -124 -119.5 -174t-112 -79.5t-143.5 -29.5q-67 0 -127 20v91q70 -27 135 -27q78 0 143.5 48.5t127.5 161.5t98 180zM494 1237q65 50 148 139t127 162h134v-23q-50 -65 -154.5 -155.5 t-188.5 -143.5h-66v21z" />
<glyph unicode="&#xfe;" horiz-adv-x="1139" d="M488 -16q-225 0 -273 215h-4q-13 -71 -146 -681h-97l425 2007h97q-112 -524 -161 -736h6q91 153 195 225t227 72q130 0 201.5 -90.5t71.5 -277.5q0 -191 -70.5 -363.5t-193.5 -271.5t-278 -99zM733 998q-84 0 -169 -56.5t-159.5 -166.5t-109 -233.5t-34.5 -202.5 q0 -122 60 -196t165 -74q122 0 221 82t160.5 238.5t61.5 319.5q0 289 -196 289z" />
<glyph unicode="&#xff;" horiz-adv-x="901" d="M121 1065h98l80 -537q50 -344 54 -440h11q42 103 182 360l341 617h101l-699 -1264q-70 -124 -119.5 -174t-112 -79.5t-143.5 -29.5q-67 0 -127 20v91q70 -27 135 -27q78 0 143.5 48.5t127.5 161.5t98 180zM684 1339q0 48 20 76.5t56 28.5q53 0 53 -63q0 -47 -21 -75.5 t-54 -28.5q-54 0 -54 62zM347 1339q0 48 20 76.5t56 28.5q53 0 53 -63q0 -47 -21 -75.5t-54 -28.5q-54 0 -54 62z" />
<glyph unicode="&#x131;" horiz-adv-x="465" d="M171 0h-97l227 1065h94z" />
<glyph unicode="&#x152;" horiz-adv-x="1731" d="M1499 0h-652q-25 -6 -76.5 -13t-92.5 -7q-246 0 -377.5 146.5t-131.5 421.5q0 258 94 472.5t256.5 323.5t373.5 109q127 0 235 -20h674l-19 -92h-613l-115 -542h579l-20 -92h-576l-132 -615h613zM691 71q67 0 114 11l265 1265q-108 14 -185 14q-178 0 -315 -96.5 t-218.5 -287.5t-81.5 -415q0 -241 107 -366t314 -125z" />
<glyph unicode="&#x153;" horiz-adv-x="1685" d="M1237 -20q-133 0 -224 68t-122 197q-64 -124 -175.5 -194.5t-251.5 -70.5q-181 0 -274.5 107.5t-93.5 307.5q0 187 71.5 350.5t193 252t275.5 88.5q138 0 232 -73t124 -208q68 129 178.5 203t236.5 74q112 0 178.5 -60t66.5 -163q0 -177 -160 -270t-477 -93h-31 q-7 -37 -7 -96q0 -162 72.5 -246.5t208.5 -84.5q131 0 272 71v-92q-137 -68 -293 -68zM628 1002q-121 0 -218 -77t-155 -220.5t-58 -304.5q0 -335 276 -335q125 0 221.5 76t154 223.5t57.5 323.5q0 151 -72 232.5t-206 81.5zM1395 998q-129 0 -238.5 -113t-158.5 -303h48 q505 0 505 265q0 68 -43.5 109.5t-112.5 41.5z" />
<glyph unicode="&#x178;" horiz-adv-x="945" d="M484 632l533 801h115l-618 -914l-106 -519h-103l116 534l-232 899h98zM782 1670q0 48 20 76.5t56 28.5q53 0 53 -63q0 -47 -21 -75.5t-54 -28.5q-54 0 -54 62zM445 1670q0 48 20 76.5t56 28.5q53 0 53 -63q0 -47 -21 -75.5t-54 -28.5q-54 0 -54 62z" />
<glyph unicode="&#x2c6;" horiz-adv-x="1112" d="M939 1216h-48q-69 59 -158 203q-54 -56 -122.5 -112.5t-122.5 -90.5h-53v29q67 54 154.5 145t124.5 148h63q23 -63 71.5 -150t90.5 -143v-29z" />
<glyph unicode="&#x2da;" horiz-adv-x="1158" d="M948 1419q0 -90 -56.5 -145.5t-142.5 -55.5q-91 0 -145 51t-54 142q0 86 58 141t147 55q86 0 139.5 -49t53.5 -139zM871 1417q0 56 -32.5 88.5t-85.5 32.5q-59 0 -92 -35.5t-33 -91.5t32.5 -88t88.5 -32q55 0 88.5 35t33.5 91z" />
<glyph unicode="&#x2dc;" horiz-adv-x="1112" d="M814 1224q-39 0 -75.5 18.5t-74.5 44.5q-33 22 -63 40t-67 18q-44 0 -72.5 -28t-49.5 -99h-73q19 106 70 163.5t131 57.5q40 0 72 -14t115 -71q51 -35 92 -35q42 0 70 30t46 98h74q-25 -115 -72.5 -169t-122.5 -54z" />
<glyph unicode="&#x2000;" horiz-adv-x="934" />
<glyph unicode="&#x2001;" horiz-adv-x="1869" />
<glyph unicode="&#x2002;" horiz-adv-x="934" />
<glyph unicode="&#x2003;" horiz-adv-x="1869" />
<glyph unicode="&#x2004;" horiz-adv-x="623" />
<glyph unicode="&#x2005;" horiz-adv-x="467" />
<glyph unicode="&#x2006;" horiz-adv-x="311" />
<glyph unicode="&#x2007;" horiz-adv-x="311" />
<glyph unicode="&#x2008;" horiz-adv-x="233" />
<glyph unicode="&#x2009;" horiz-adv-x="373" />
<glyph unicode="&#x200a;" horiz-adv-x="103" />
<glyph unicode="&#x2010;" horiz-adv-x="616" d="M80 492l18 88h448l-16 -88h-450z" />
<glyph unicode="&#x2011;" horiz-adv-x="616" d="M80 492l18 88h448l-16 -88h-450z" />
<glyph unicode="&#x2012;" horiz-adv-x="616" d="M80 492l18 88h448l-16 -88h-450z" />
<glyph unicode="&#x2013;" horiz-adv-x="963" d="M65 492l17 88h791l-16 -88h-792z" />
<glyph unicode="&#x2014;" horiz-adv-x="1926" d="M67 492l17 88h1753l-16 -88h-1754z" />
<glyph unicode="&#x2018;" horiz-adv-x="293" d="M130 942l-4 21q41 98 114.5 226.5t157.5 243.5h71q-64 -104 -126.5 -238t-101.5 -253h-111z" />
<glyph unicode="&#x2019;" horiz-adv-x="293" d="M466 1433l3 -22q-42 -103 -115 -230.5t-155 -238.5h-73q65 104 127.5 237.5t101.5 253.5h111z" />
<glyph unicode="&#x201a;" horiz-adv-x="441" d="M241 233l4 -22q-39 -95 -113 -225.5t-158 -244.5h-72q67 108 129 243.5t99 248.5h111z" />
<glyph unicode="&#x201c;" horiz-adv-x="618" d="M130 942l-4 21q41 98 114.5 226.5t157.5 243.5h71q-64 -104 -126.5 -238t-101.5 -253h-111zM458 942l-4 21q42 102 117.5 234t152.5 236h73q-65 -104 -127 -238t-102 -253h-110z" />
<glyph unicode="&#x201d;" horiz-adv-x="618" d="M793 1433l4 -22q-42 -103 -115 -230.5t-156 -238.5h-72q64 104 126.5 237.5t101.5 253.5h111zM466 1433l3 -22q-42 -103 -115 -230.5t-155 -238.5h-73q65 104 127.5 237.5t101.5 253.5h111z" />
<glyph unicode="&#x201e;" horiz-adv-x="760" d="M550 233l4 -22q-42 -103 -115 -231t-156 -239h-72q64 106 126 238t103 254h110zM222 233l4 -22q-42 -103 -115 -231t-155 -239h-73q72 117 133 249.5t97 242.5h109z" />
<glyph unicode="&#x2022;" horiz-adv-x="777" d="M243 668q0 135 62 209.5t168 74.5q75 0 114 -39t39 -116q0 -123 -64.5 -203t-172.5 -80q-146 0 -146 154z" />
<glyph unicode="&#x2026;" horiz-adv-x="1459" d="M67 54q0 55 24.5 86.5t67.5 31.5q65 0 65 -70q0 -52 -24.5 -86t-65.5 -34q-67 0 -67 72zM557 54q0 55 24.5 86.5t67.5 31.5q65 0 65 -70q0 -52 -24.5 -86t-65.5 -34q-67 0 -67 72zM1049 54q0 55 24.5 86.5t67.5 31.5q65 0 65 -70q0 -52 -24.5 -86t-65.5 -34q-67 0 -67 72 z" />
<glyph unicode="&#x202f;" horiz-adv-x="373" />
<glyph unicode="&#x2039;" horiz-adv-x="526" d="M442 913l56 -48l-312 -329l209 -377l-62 -38l-249 409l2 26z" />
<glyph unicode="&#x203a;" horiz-adv-x="526" d="M92 121l-56 48l311 329l-209 377l63 38l249 -409l-2 -27z" />
<glyph unicode="&#x2044;" horiz-adv-x="268" d="M716 1433l-1065 -1433h-105l1065 1433h105z" />
<glyph unicode="&#x205f;" horiz-adv-x="467" />
<glyph unicode="&#x2074;" horiz-adv-x="630" d="M644 799h-129l-48 -225h-80l48 225h-383l21 74l495 566h85l-123 -570h131zM450 869q60 288 77.5 358.5t28.5 103.5q-10 -16 -60 -77.5t-331 -384.5h285z" />
<glyph unicode="&#x20ac;" d="M971 1361q-182 0 -323.5 -118t-222.5 -339h448l-20 -81h-451q-30 -96 -38 -212h433l-20 -81h-415q0 -238 87 -348.5t260 -110.5q112 0 247 55v-92q-127 -54 -265 -54q-205 0 -318.5 137t-113.5 387v26h-181l16 81h169q5 99 34 212h-167l19 81h170q94 267 265.5 408 t390.5 141q163 0 281 -88l-52 -80q-100 76 -233 76z" />
<glyph unicode="&#x2122;" horiz-adv-x="1503" d="M467 726h-84v630h-212v77h511v-77h-215v-630zM1055 726l-216 597h-6l4 -197v-400h-80v707h122l217 -594l218 594h123v-707h-85v390l4 203h-6l-222 -593h-73z" />
<glyph unicode="&#xe000;" horiz-adv-x="1063" d="M0 1063h1063v-1063h-1063v1063z" />
</font>
</defs>
</svg>
